<?xml version="1.0" standalone="no"?>
<!DOCTYPE svg PUBLIC "-//W3C//DTD SVG 20010904//EN"
 "http://www.w3.org/TR/2001/REC-SVG-20010904/DTD/svg10.dtd">
<svg version="1.0" xmlns="http://www.w3.org/2000/svg"
 width="365.000000pt" height="365.000000pt" viewBox="0 0 365.000000 365.000000"
 preserveAspectRatio="xMidYMid meet">
<metadata>
Created by potrace 1.11, written by Peter Selinger 2001-2013
</metadata>
<g transform="translate(0.000000,365.000000) scale(0.100000,-0.100000)"
fill="#000000" stroke="none">
<path d="M2718 3015 c-2 -2 -31 -6 -66 -9 -159 -16 -353 -125 -443 -251 -22
-31 -38 -44 -49 -41 -8 3 -55 19 -105 36 -394 136 -840 -111 -944 -522 -10
-37 -20 -71 -24 -74 -3 -4 -55 -8 -114 -9 -166 -4 -278 -37 -403 -120 -370
-246 -423 -766 -110 -1085 114 -117 238 -179 410 -206 19 -4 377 -6 795 -7
689 0 767 1 840 17 214 47 395 188 489 380 52 107 70 184 70 311 0 102 -4 127
-39 250 -5 17 3 25 47 47 151 75 287 249 334 428 17 66 23 212 11 285 -36 233
-232 458 -464 533 -55 18 -94 25 -200 36 -18 2 -34 2 -35 1z m193 -213 c206
-72 343 -279 333 -499 -8 -172 -117 -343 -266 -417 l-50 -25 -31 37 c-73 84
-176 158 -269 194 -57 22 -57 22 -63 73 -17 125 -93 279 -191 384 l-55 59 60
65 c136 145 344 195 532 129z m-900 -226 c222 -77 365 -268 383 -510 6 -75 26
-96 120 -125 388 -119 500 -606 204 -890 -58 -56 -164 -113 -243 -132 -74 -17
-1553 -16 -1626 1 -153 36 -288 141 -359 280 -41 81 -55 145 -53 255 3 185
112 359 282 449 94 49 143 58 329 61 159 2 164 2 188 27 19 18 27 39 30 79 13
129 54 234 127 324 151 186 397 258 618 181z"/>
</g>
</svg>
